<?xml version="1.0" standalone="no"?><!DOCTYPE svg PUBLIC "-//W3C//DTD SVG 1.1//EN" "http://www.w3.org/Graphics/SVG/1.1/DTD/svg11.dtd"><svg class="icon" width="200px" height="200.00px" viewBox="0 0 1024 1024" version="1.1" xmlns="http://www.w3.org/2000/svg"><path d="M245.76 836.608s-28.416-192 142.2336-192c45.4144 30.2592 84.2752 51.2 128 51.0976h-1.792c43.7248 0.1024 66.9696-30.7712 112.384-61.0304 221.44 0 163.5328 201.9328 163.5328 201.9328" fill="#92D3F5" /><path d="M505.5488 789.3504l-46.08-55.9104-46.08-55.9616h184.32l-46.08 55.9616-46.08 55.9104z" fill="#FFFFFF" /><path d="M377.1904 638.8224s-83.9168 57.2416-30.72 106.1888h65.024l-11.8784 53.248 112.2816 27.7504 4.096-35.6352-118.8864-147.456" fill="#61B2E4" /><path d="M954.0608 617.5744l-98.816 232.4992H499.7632l98.816-232.5504h355.4304z" fill="#D0CFCE" /><path d="M957.2864 617.5744l-98.816 232.4992H730.624l98.816-232.5504h127.8464z" fill="#9B9B9A" /><path d="M369.664 520.2944c-56.832 0-56.832-85.3504-56.832-184.8832 0-99.5328 56.832-199.1168 199.0656-199.1168 142.2336 0 199.168 99.584 199.168 199.1168 0 99.5328 0 184.8832-56.9344 184.8832" fill="#A57939" /><path d="M354.816 406.528c0 128 70.144 199.0656 156.416 199.0656 84.48 0 157.3376-71.1168 157.3376-199.1168a172.6976 172.6976 0 0 0-14.1824-71.1168c-42.7008-42.6496-99.584-113.7664-99.584-113.7664-56.832 42.6496-99.5328 85.3504-184.832 99.584 0 0-15.1552 14.1824-15.1552 85.2992z" fill="#FCEA2B" /><path d="M240.64 838.0416a14.1824 14.1824 0 0 1-14.0288-12.0832c-0.6144-3.84-13.824-94.3104 36.7104-153.2416 27.3408-31.8464 67.584-48.0256 119.552-48.0256 2.816 0 5.5296 0.8192 7.8848 2.4064 45.0048 30.0032 80.7424 48.64 119.552 48.64h0.512a14.2336 14.2336 0 0 1 0.0512 28.4672H508.416c-44.0832-0.5632-82.7392-19.968-129.8432-50.9952-41.1648 0.768-72.704 13.568-93.6448 37.888-42.0352 48.9472-30.4128 129.7408-30.2592 130.56a14.2336 14.2336 0 0 1-14.08 16.384z" fill="#000000" /><path d="M483.5328 786.2784a14.1824 14.1824 0 0 1-11.1104-5.3248l-103.2704-129.024a14.1824 14.1824 0 1 1 22.1696-17.7664l103.3216 129.024a14.1824 14.1824 0 0 1-11.0592 23.04z" fill="#000000" /><path d="M469.2992 815.7696a14.1312 14.1312 0 0 1-3.1744-0.3584l-69.632-16.0256a14.1824 14.1824 0 0 1-10.496-17.8688l6.5024-22.1696h-46.0288a14.2848 14.2848 0 0 1-9.6256-3.7376c-19.968-18.432-23.04-37.632-22.1184-50.5856 3.072-41.6256 49.2032-74.24 54.4768-77.824a14.1824 14.1824 0 0 1 16.0256 23.4496c-11.1104 7.68-40.448 32.768-42.1376 56.5248-0.5632 8.3968 2.4576 16.1792 9.2672 23.7056h59.136a14.2336 14.2336 0 0 1 13.6704 18.2272l-7.6288 25.9584 54.9888 12.6464a14.2336 14.2336 0 0 1-3.2256 28.0576z" fill="#000000" /><path d="M596.6848 384.7168a28.4672 28.4672 0 1 1-56.8832 0 28.4672 28.4672 0 0 1 56.8832 0zM483.072 384.7168a28.4672 28.4672 0 1 1-56.832 0 28.4672 28.4672 0 0 1 56.832 0zM511.2832 526.9504a108.8512 108.8512 0 0 1-48.9984-12.1856 14.2336 14.2336 0 0 1 12.6976-25.4464c22.6816 12.1856 49.9712 12.1856 72.6016 0a14.2336 14.2336 0 0 1 12.7488 25.4464 108.8512 108.8512 0 0 1-49.0496 12.1856z" fill="#000000" /><path d="M589.824 464.64h-28.5184c-22.016 0-40.96-13.1584-49.5104-32.0512a54.3232 54.3232 0 0 1-49.5104 32.0512h-28.5184c-29.952 0-54.272-24.3712-54.272-54.272V392.704h-9.8816a14.2336 14.2336 0 1 1 0-28.4672h24.064c7.8848 0 14.2336 6.4 14.2336 14.2336v31.8464c0 14.2336 11.5712 25.8048 25.856 25.8048h28.5184a25.856 25.856 0 0 0 25.856-25.8048v-15.7184c0-7.8336 6.3488-14.2336 14.1824-14.2336h18.944c7.8336 0 14.2336 6.4 14.2336 14.2336v15.7184c0 14.2336 11.5712 25.8048 25.8048 25.8048h28.5696a25.856 25.856 0 0 0 25.8048-25.8048v-31.8464c0-7.8336 6.3488-14.2336 14.2336-14.2336h16.4352a14.2336 14.2336 0 1 1 0 28.4672h-2.2016v17.6128c0 29.9008-24.3712 54.272-54.272 54.272z" fill="#000000" /></svg>