<?xml version="1.0" standalone="no"?><!DOCTYPE svg PUBLIC "-//W3C//DTD SVG 1.1//EN" "http://www.w3.org/Graphics/SVG/1.1/DTD/svg11.dtd"><svg class="icon" width="200px" height="200.00px" viewBox="0 0 1024 1024" version="1.1" xmlns="http://www.w3.org/2000/svg"><path d="M469.333333 807.509333V853.333333a42.666667 42.666667 0 0 1-42.666666 42.666667H298.666667a42.666667 42.666667 0 0 1-42.666667-42.666667v-27.008c62.72 5.76 135.936-0.853333 213.333333-18.816z m298.666667-122.581333V853.333333a42.666667 42.666667 0 0 1-42.666667 42.666667h-128a42.666667 42.666667 0 0 1-42.666666-42.666667v-69.845333c10.666667-3.498667 21.376-7.210667 32.085333-11.093333 66.986667-24.362667 128.469333-54.186667 181.290667-87.466667z m41.216-370.346667c60.288 13.184 102.869333 41.813333 118.912 85.845334 40.874667 112.298667-116.309333 258.005333-341.674667 340.053333-225.322667 81.962667-439.381333 71.381333-480.256-40.917333-22.912-63.018667 15.488-135.850667 96-203.776l9.088-7.509334 40.234667 49.792c-67.754667 54.698667-96.938667 107.264-85.162667 139.605334 23.594667 64.853333 202.837333 73.728 398.208 2.645333a858.624 858.624 0 0 0 155.221334-74.24l18.56-11.861333c93.226667-61.482667 145.194667-129.152 129.621333-171.946667-6.698667-18.389333-27.861333-33.706667-63.317333-43.008l-9.130667-2.218667 13.653333-62.506666zM426.666667 298.666667a42.666667 42.666667 0 0 1 42.666666 42.666666v334.08c-68.693333 18.346667-133.973333 26.624-187.733333 23.978667a344.149333 344.149333 0 0 1-25.728-2.218667L256 341.333333a42.666667 42.666667 0 0 1 42.666667-42.666666h128z m298.666666-170.666667a42.666667 42.666667 0 0 1 42.666667 42.666667l0.085333 354.688c-53.504 47.701333-133.546667 93.44-225.109333 126.72L554.666667 647.68 554.666667 170.666667a42.666667 42.666667 0 0 1 42.666666-42.666667h128z" fill="#2D26EF" /></svg>
